<svg width="1920" height="1080" viewBox="0 0 1920 1080" xmlns="http://www.w3.org/2000/svg"><rect width="1920" height="1080" fill="#4e355f"/><path d="M 0,1080 C 0,1080 0,180 0,180 C 129.37435897435898,145.31538461538463 258.74871794871797,110.63076923076925 351,117 C 443.25128205128203,123.36923076923075 498.3794871794872,170.79230769230767 610,169 C 721.6205128205128,167.20769230769233 889.7333333333336,116.2 995,117 C 1100.2666666666664,117.8 1142.6871794871797,170.4076923076923 1229,186 C 1315.3128205128203,201.5923076923077 1445.5179487179487,180.16923076923075 1568,173 C 1690.4820512820513,165.83076923076925 1805.2410256410258,172.91538461538462 1920,180 C 1920,180 1920,1080 1920,1080 Z" fill="#6c9474" opacity="0.09999999999999999"/><path d="M 0,1080 C 0,1080 0,360 0,360 C 89.4897435897436,351.26153846153846 178.9794871794872,342.5230769230769 278,328 C 377.0205128205128,313.4769230769231 485.57179487179485,293.1692307692308 596,319 C 706.4282051282051,344.8307692307692 818.7333333333333,416.79999999999995 923,424 C 1027.2666666666667,431.20000000000005 1123.4948717948716,373.63076923076926 1249,360 C 1374.5051282051284,346.36923076923074 1529.2871794871794,376.67692307692306 1646,384 C 1762.7128205128206,391.32307692307694 1841.3564102564103,375.6615384615385 1920,360 C 1920,360 1920,1080 1920,1080 Z" fill="#6c9474" opacity="0.19999999999999998"/><path d="M 0,1080 C 0,1080 0,540 0,540 C 127.28205128205127,549.2076923076922 254.56410256410254,558.4153846153846 348,542 C 441.43589743589746,525.5846153846154 501.025641025641,483.5461538461539 594,490 C 686.974358974359,496.4538461538461 813.3333333333335,551.3999999999999 945,561 C 1076.6666666666665,570.6000000000001 1213.6410256410254,534.8538461538462 1329,531 C 1444.3589743589746,527.1461538461538 1538.1025641025642,555.1846153846154 1633,562 C 1727.8974358974358,568.8153846153846 1823.9487179487178,554.4076923076923 1920,540 C 1920,540 1920,1080 1920,1080 Z" fill="#6c9474" opacity="0.3"/><path d="M 0,1080 C 0,1080 0,720 0,720 C 106.24871794871797,739.3102564102564 212.49743589743593,758.6205128205129 327,749 C 441.50256410256407,739.3794871794871 564.2589743589743,700.8282051282051 671,702 C 777.7410256410257,703.1717948717949 868.4666666666665,744.0666666666667 965,756 C 1061.5333333333335,767.9333333333333 1163.874358974359,750.9051282051282 1258,737 C 1352.125641025641,723.0948717948718 1438.0358974358974,712.3128205128205 1547,710 C 1655.9641025641026,707.6871794871795 1787.9820512820513,713.8435897435897 1920,720 C 1920,720 1920,1080 1920,1080 Z" fill="#6c9474" opacity="0.39999999999999997"/><path d="M 0,1080 C 0,1080 0,900 0,900 C 91.65641025641025,873.6512820512821 183.3128205128205,847.3025641025641 295,859 C 406.6871794871795,870.6974358974359 538.4051282051282,920.4410256410255 635,925 C 731.5948717948718,929.5589743589745 793.0666666666666,888.9333333333334 907,868 C 1020.9333333333334,847.0666666666666 1187.3282051282051,845.825641025641 1296,856 C 1404.6717948717949,866.174358974359 1455.6205128205127,887.7641025641025 1550,897 C 1644.3794871794873,906.2358974358975 1782.1897435897436,903.1179487179488 1920,900 C 1920,900 1920,1080 1920,1080 Z" fill="#6c9474" opacity="0.49999999999999994"/></svg>