<svg width="1920" height="240" viewBox="0 0 1920 240" xmlns="http://www.w3.org/2000/svg"><rect width="1920" height="240" fill="#4e355f"/><path d="M 0,240 C 0,240 0,24 0,24 C 30.20736032290263,27.629433396335077 60.41472064580526,31.258866792670155 90,28 C 119.58527935419474,24.741133207329845 148.54847773968157,14.593966225654455 170,16 C 191.45152226031843,17.406033774345545 205.39136839546836,30.365268304712018 233,31 C 260.60863160453164,31.634731695287982 301.8860486784451,19.94496055549748 328,17 C 354.1139513215549,14.055039444502519 365.0644368907515,19.854889473298062 390,22 C 414.9355631092485,24.145110526701938 453.8562037585489,22.635481551310285 485,24 C 516.1437962414511,25.364518448689715 539.5107480750532,29.6031843214608 566,31 C 592.4892519249468,32.3968156785392 622.100803941238,30.951781162846512 645,29 C 667.899196058762,27.048218837153488 684.0860361599946,24.589691027153165 708,26 C 731.9139638400054,27.410308972846835 763.5550514187835,32.689454728540824 795,32 C 826.4449485812165,31.31054527145918 857.6937581648718,24.65249005868356 885,20 C 912.3062418351282,15.34750994131644 935.6699159217294,12.700585036724934 959,15 C 982.3300840782706,17.299414963275066 1005.6265781482107,24.545169794416704 1034,28 C 1062.3734218517893,31.454830205583296 1095.823771485428,31.118735785608237 1122,32 C 1148.176228514572,32.88126421439176 1167.0783359100767,34.979887063150315 1191,31 C 1214.9216640899233,27.02011293684969 1243.8628848742642,16.961715961790517 1276,15 C 1308.1371151257358,13.038284038209484 1343.470124592866,19.17324908968763 1368,19 C 1392.529875407134,18.82675091031237 1406.2566167542716,12.345287679458949 1432,15 C 1457.7433832457284,17.65471232054105 1495.503408390047,29.445600192476576 1527,31 C 1558.496591609953,32.554399807523424 1583.72974968554,23.87231155063473 1611,21 C 1638.27025031446,18.12768844936527 1667.577592867793,21.065153604984502 1691,23 C 1714.422407132207,24.934846395015498 1731.9598788432866,25.86707402942725 1758,27 C 1784.0401211567134,28.13292597057275 1818.5828917590609,29.4665502773065 1847,29 C 1875.4171082409391,28.5334497226935 1897.7085541204697,26.266724861346752 1920,24 C 1920,24 1920,240 1920,240 Z" fill="#6c9474" opacity="0.06"/><path d="M 0,240 C 0,240 0,48 0,48 C 32.32406214545126,47.90399281914313 64.64812429090252,47.80798563828626 87,50 C 109.35187570909748,52.19201436171374 121.73156498184119,56.67205026599809 145,56 C 168.2684350181588,55.32794973400191 202.4256157817327,49.503813297721386 237,45 C 271.5743842182673,40.496186702278614 306.56597189122795,37.31269654311637 332,39 C 357.43402810877205,40.68730345688363 373.31049665335564,47.245400529813146 396,50 C 418.68950334664436,52.754599470186854 448.1920414953498,51.705701337631055 481,48 C 513.8079585046502,44.294298662368945 549.921337365245,37.93179411966264 573,41 C 596.078662634755,44.06820588033736 606.1226090436702,56.56712218371841 627,56 C 647.8773909563298,55.43287781628159 679.588226460074,41.79971714546371 708,41 C 736.411773539926,40.20028285453629 761.5244851160338,52.23400923442673 787,54 C 812.4755148839662,55.76599076557327 838.3138330757905,47.264245916829374 871,45 C 903.6861669242095,42.735754083170626 943.2201825808042,46.7090070982558 970,48 C 996.7798174191958,49.2909929017442 1010.8054366009924,47.899725690147434 1034,50 C 1057.1945633990076,52.100274309852566 1089.5580710152267,57.6920901411545 1119,55 C 1148.4419289847733,52.3079098588455 1174.9622793381004,41.33191374523454 1201,41 C 1227.0377206618996,40.66808625476546 1252.592811632372,50.98025487790735 1278,56 C 1303.407188367628,61.01974512209265 1328.6664741324112,60.74706674313605 1359,56 C 1389.3335258675888,51.25293325686395 1424.7412918379832,42.03147814954843 1451,41 C 1477.2587081620168,39.96852185045157 1494.368358515655,47.12702065867022 1520,52 C 1545.631641484345,56.87297934132978 1579.7852740993962,59.460439215770684 1606,56 C 1632.2147259006038,52.539560784229316 1650.4905450867593,43.03122247824703 1674,41 C 1697.5094549132407,38.96877752175297 1726.252545553565,44.414670871241185 1756,46 C 1785.747454446435,47.585329128758815 1816.4992726989815,45.31009403678823 1844,45 C 1871.5007273010185,44.68990596321177 1895.7503636505094,46.344952981605886 1920,48 C 1920,48 1920,240 1920,240 Z" fill="#6c9474" opacity="0.12"/><path d="M 0,240 C 0,240 0,72 0,72 C 27.28962572251458,73.82555140412154 54.57925144502916,75.6511028082431 78,76 C 101.42074855497084,76.3488971917569 120.97261994239796,75.22114017114919 145,72 C 169.02738005760204,68.77885982885081 197.53026878537904,63.46433650716017 225,65 C 252.46973121462096,66.53566349283983 278.9063049160859,74.9215138002101 307,78 C 335.0936950839141,81.0784861997899 364.84451155027756,78.8496082919994 395,74 C 425.15548844972244,69.1503917080006 455.7156488828038,61.68005303179231 482,63 C 508.2843511171962,64.31994696820769 530.2928929185073,74.43017958083136 560,79 C 589.7071070814927,83.56982041916864 627.1127794431675,82.59922864488227 653,79 C 678.8872205568325,75.40077135511773 693.255989308823,69.17290583963953 714,67 C 734.744010691177,64.82709416036047 761.8632633215404,66.7091479965596 790,70 C 818.1367366784596,73.2908520034404 847.2909574050151,77.99050217412207 878,77 C 908.7090425949849,76.00949782587793 940.9729070583993,69.32884330695212 968,67 C 995.0270929416007,64.67115669304788 1016.8174143613878,66.69412459806946 1040,69 C 1063.1825856386122,71.30587540193054 1087.7574354960493,73.89465830077 1115,74 C 1142.2425645039507,74.10534169923 1172.152843654414,71.72724219885048 1200,70 C 1227.847156345586,68.27275780114952 1253.6311898862941,67.19637290382808 1282,69 C 1310.3688101137059,70.80362709617192 1341.3223968004095,75.48726618583721 1363,74 C 1384.6776031995905,72.51273381416279 1397.079222912068,64.85456235282307 1426,63 C 1454.920777087932,61.145437647176934 1500.3607115513187,65.0944844028705 1531,67 C 1561.6392884486813,68.9055155971295 1577.4779308826578,68.76750003569492 1597,71 C 1616.5220691173422,73.23249996430508 1639.7275649180503,77.83551545434982 1671,78 C 1702.2724350819497,78.16448454565018 1741.6118094451404,73.89043814690582 1767,72 C 1792.3881905548596,70.10956185309418 1803.8251973013882,70.60273195802691 1827,71 C 1850.1748026986118,71.39726804197309 1885.0874013493058,71.69863402098655 1920,72 C 1920,72 1920,240 1920,240 Z" fill="#6c9474" opacity="0.18"/><path d="M 0,240 C 0,240 0,96 0,96 C 26.93368672084749,93.09562052593361 53.86737344169498,90.19124105186722 79,92 C 104.13262655830502,93.80875894813278 127.46419295406761,100.33065631846473 156,102 C 184.5358070459324,103.66934368153527 218.27585474203465,100.48613367427392 243,97 C 267.72414525796535,93.51386632572608 283.4323880777937,89.72480898443962 311,90 C 338.5676119222063,90.27519101556038 377.9945929467906,94.61463038796762 409,94 C 440.0054070532094,93.38536961203238 462.589240135044,87.81666946368988 482,89 C 501.410759864956,90.18333053631012 517.6484465130332,98.11869175727279 545,98 C 572.3515534869668,97.88130824272721 610.8169738128238,89.708563507219 637,87 C 663.1830261871762,84.291436492781 677.083658235672,87.04705421385124 705,89 C 732.916341764328,90.95294578614876 774.8483932444883,92.103219637376 807,96 C 839.1516067555117,99.896780362624 861.5227687863746,106.54006723664475 888,104 C 914.4772312136254,101.45993276335525 945.0605316100133,89.73651141604509 972,89 C 998.9394683899867,88.26348858395491 1022.2351047735717,98.51388709917491 1043,102 C 1063.7648952264283,105.48611290082509 1081.9990492957002,102.2079401872553 1108,100 C 1134.0009507042998,97.7920598127447 1167.7686980436274,96.65435215180382 1194,95 C 1220.2313019563726,93.34564784819618 1238.9261585297904,91.1746512055294 1269,93 C 1299.0738414702096,94.8253487944706 1340.5266678372109,100.64704302607858 1370,100 C 1399.4733321627891,99.35295697392142 1416.967170121366,92.23717669015625 1438,91 C 1459.032829878634,89.76282330984375 1483.6046516773247,94.4042502132964 1510,95 C 1536.3953483226753,95.5957497867036 1564.6142231693357,92.14582245665812 1595,92 C 1625.3857768306643,91.85417754334188 1657.9384556453324,95.01245996007103 1685,94 C 1712.0615443546676,92.98754003992897 1733.6319542493336,87.8043377030578 1757,89 C 1780.3680457506664,90.1956622969422 1805.533727357333,97.77018922769777 1833,100 C 1860.466272642667,102.22981077230223 1890.2331363213334,99.11490538615112 1920,96 C 1920,96 1920,240 1920,240 Z" fill="#6c9474" opacity="0.24"/><path d="M 0,240 C 0,240 0,120 0,120 C 31.725656279605737,122.6094825958366 63.45131255921147,125.21896519167319 90,123 C 116.54868744078853,120.78103480832681 137.92040604275985,113.73362182914384 163,111 C 188.07959395724015,108.26637817085616 216.8670632697491,109.84654749175138 240,112 C 263.1329367302509,114.15345250824862 280.6113408782437,116.88018820385064 308,116 C 335.3886591217563,115.11981179614936 372.6875732172759,110.63269969284609 404,111 C 435.3124267827241,111.36730030715391 460.638366252653,116.58901302476504 489,121 C 517.361633747347,125.41098697523496 548.7589617721118,129.01124820809372 571,126 C 593.2410382278882,122.9887517919063 606.3257866589003,113.36599414286016 634,111 C 661.6742133410997,108.63400585713984 703.9378915922875,113.52477522046573 733,118 C 762.0621084077125,122.47522477953427 777.9226469719497,126.53490497527696 801,128 C 824.0773530280503,129.46509502472304 854.3715205199138,128.3356048784264 881,126 C 907.6284794800862,123.6643951215736 930.5912709483953,120.12267551101748 955,119 C 979.4087290516047,117.87732448898252 1005.263395686505,119.1736930775037 1035,120 C 1064.736604313495,120.8263069224963 1098.3551463055846,121.18255217896773 1128,121 C 1157.6448536944154,120.81744782103227 1183.3160190911567,120.09609820662534 1205,119 C 1226.6839809088433,117.90390179337466 1244.380777329788,116.43305499453096 1273,115 C 1301.619222670212,113.56694500546904 1341.1608715896905,112.1716818152508 1372,111 C 1402.8391284103095,109.8283181847492 1424.9757363114495,108.88021774446571 1451,111 C 1477.0242636885505,113.11978225553429 1506.9361831645115,118.30744720688632 1534,121 C 1561.0638168354885,123.69255279311368 1585.2795310305037,123.88999342798903 1605,125 C 1624.7204689694963,126.11000657201097 1639.945692713473,128.1325790811576 1667,127 C 1694.054307286527,125.86742091884243 1732.9376981156033,121.57969024738065 1760,122 C 1787.0623018843967,122.42030975261935 1802.303514824113,127.5486599293198 1827,128 C 1851.696485175887,128.4513400706802 1885.8482425879433,124.2256700353401 1920,120 C 1920,120 1920,240 1920,240 Z" fill="#6c9474" opacity="0.3"/><path d="M 0,240 C 0,240 0,144 0,144 C 25.45381220109492,146.06581914359793 50.90762440218984,148.13163828719584 79,149 C 107.09237559781016,149.86836171280416 137.8233145923356,149.53926599481457 164,147 C 190.1766854076644,144.46073400518543 211.79911722846782,139.71129773354588 235,139 C 258.2008827715322,138.28870226645412 282.98021649379314,141.61554307100184 311,142 C 339.01978350620686,142.38445692899816 370.2800167963595,139.82652998244683 395,141 C 419.7199832036405,142.17347001755317 437.8997163207689,147.07833699921088 467,149 C 496.1002836792311,150.92166300078912 536.1211179205649,149.86012202070964 566,147 C 595.8788820794351,144.13987797929036 615.6158119969721,139.48117491795057 637,141 C 658.3841880030279,142.51882508204943 681.415634091547,150.21517830748815 706,150 C 730.584365908453,149.78482169251185 756.72165163684,141.6581118520969 785,138 C 813.27834836316,134.3418881479031 843.6977593610932,135.15237428412414 869,136 C 894.3022406389068,136.84762571587586 914.4873109187877,137.73239101140658 946,140 C 977.5126890812123,142.26760898859342 1020.3529969637566,145.91806167024964 1051,147 C 1081.6470030362434,148.08193832975036 1100.1007012261862,146.59536230759483 1123,144 C 1145.8992987738138,141.40463769240517 1173.2441981314978,137.70048909937097 1198,140 C 1222.7558018685022,142.29951090062903 1244.9225062478226,150.60268129492118 1273,151 C 1301.0774937521774,151.39731870507882 1335.065776877211,143.8887857209442 1365,141 C 1394.934223122789,138.1112142790558 1420.8143862433335,139.84217582130194 1450,142 C 1479.1856137566665,144.15782417869806 1511.6766781494546,146.74251099384804 1532,145 C 1552.3233218505454,143.25748900615196 1560.478901158848,137.18778020330592 1589,139 C 1617.521098841152,140.81221979669408 1666.407717215154,150.5063681929283 1694,151 C 1721.592282784846,151.4936318070717 1727.890229980535,142.78674702498083 1748,140 C 1768.109770019465,137.21325297501917 1802.031362862704,140.34664370714833 1833,142 C 1863.968637137296,143.65335629285167 1891.984318568648,143.82667814642582 1920,144 C 1920,144 1920,240 1920,240 Z" fill="#6c9474" opacity="0.36"/><path d="M 0,240 C 0,240 0,168 0,168 C 30.870873790121145,172.73151651261833 61.74174758024229,177.46303302523663 86,176 C 110.25825241975771,174.53696697476337 127.90388346915196,166.87938441167182 155,164 C 182.09611653084804,161.12061558832818 218.64271854314984,163.01942932807603 250,164 C 281.35728145685016,164.98057067192397 307.5252423582488,165.0428982760241 332,166 C 356.4747576417512,166.9571017239759 379.25631202385506,168.80897756782772 401,168 C 422.74368797614494,167.19102243217228 443.4495095463309,163.72119145266507 472,164 C 500.5504904536691,164.27880854733493 536.9456497908213,168.30625662151203 569,168 C 601.0543502091787,167.69374337848797 628.767891290384,163.0537820612868 653,162 C 677.232108709616,160.9462179387132 697.9827850476429,163.47861513334072 724,167 C 750.0172149523571,170.52138486665928 781.3009685190445,175.03175740535042 805,174 C 828.6990314809555,172.96824259464958 844.8133408761794,166.39435524525751 870,163 C 895.1866591238206,159.60564475474249 929.4456679762379,159.39082161361952 956,160 C 982.5543320237621,160.60917838638048 1001.4039872188691,162.04235830026434 1026,163 C 1050.5960127811309,163.95764169973566 1080.9383831482862,164.43974518532306 1109,167 C 1137.0616168517138,169.56025481467694 1162.842480187985,174.1986609584432 1194,173 C 1225.157519812015,171.8013390415568 1261.6916960997733,164.7656109809041 1291,162 C 1320.3083039002267,159.2343890190959 1342.3907354129212,160.73889511794022 1363,160 C 1383.6092645870788,159.26110488205978 1402.745362248541,156.27880854733493 1432,160 C 1461.254637751459,163.72119145266507 1500.6278155929149,174.14587069272002 1526,176 C 1551.3721844070851,177.85412930727998 1562.7433753797989,171.13770868178497 1588,168 C 1613.2566246202011,164.86229131821503 1652.3986828878888,165.3032945801401 1683,168 C 1713.6013171121112,170.6967054198599 1735.6618930686452,175.64911299765458 1764,175 C 1792.3381069313548,174.35088700234542 1826.95374483753,168.10025342924155 1854,166 C 1881.04625516247,163.89974657075845 1900.523127581235,165.94987328537923 1920,168 C 1920,168 1920,240 1920,240 Z" fill="#6c9474" opacity="0.42"/><path d="M 0,240 C 0,240 0,192 0,192 C 20.339634294821167,196.56906260775423 40.679268589642334,201.1381252155085 65,199 C 89.32073141035767,196.8618747844915 117.6225599362518,188.01656174572037 147,189 C 176.3774400637482,189.98343825427963 206.83049166535045,200.7956278016101 232,200 C 257.16950833464955,199.2043721983899 277.05547340234625,186.80092704783934 305,183 C 332.94452659765375,179.19907295216066 368.9476147252647,184.00066400703258 399,186 C 429.0523852747353,187.99933599296742 453.15406769659495,187.19641692403036 478,189 C 502.84593230340505,190.80358307596964 528.4361144883555,195.21366829684592 555,197 C 581.5638855116445,198.78633170315408 609.1014743499833,197.948909888586 638,194 C 666.8985256500167,190.051090111414 697.1579881117115,182.99069214880998 721,183 C 744.8420118882885,183.00930785119002 762.266573203171,190.088321516174 789,191 C 815.733426796829,191.911678483826 851.7757190756047,186.6560217864939 880,185 C 908.2242809243953,183.3439782135061 928.6305504944105,185.28759133785042 953,186 C 977.3694495055895,186.71240866214958 1005.7020789467531,186.19361286210452 1033,187 C 1060.297921053247,187.80638713789548 1086.5611337185774,189.93795721373164 1117,190 C 1147.4388662814226,190.06204278626836 1182.0533861789374,188.0545582829689 1207,186 C 1231.9466138210626,183.9454417170311 1247.2253215656726,181.8438096543926 1273,185 C 1298.7746784343274,188.1561903456074 1335.0453275583716,196.5702030994607 1364,196 C 1392.9546724416284,195.4297969005393 1414.593368200841,185.8753779477645 1443,183 C 1471.406631799159,180.1246220522355 1506.5811996382645,183.92828510948132 1533,186 C 1559.4188003617355,188.07171489051868 1577.0818332461004,188.41148161431025 1597,189 C 1616.9181667538996,189.58851838568975 1639.0914673773339,190.42578843327763 1668,192 C 1696.9085326226661,193.57421156672237 1732.552297244564,195.8853646525791 1759,194 C 1785.447702755436,192.1146353474209 1802.6993436444102,186.03275295640597 1828,185 C 1853.3006563555898,183.96724704359403 1886.650328177795,187.98362352179703 1920,192 C 1920,192 1920,240 1920,240 Z" fill="#6c9474" opacity="0.48"/><path d="M 0,240 C 0,240 0,216 0,216 C 28.803806018381415,218.2971221252182 57.60761203676283,220.5942442504364 87,220 C 116.39238796323717,219.4057557495636 146.37335787133011,215.92014512347257 174,214 C 201.62664212866989,212.07985487652743 226.89895647791678,211.7251752556733 248,211 C 269.1010435220832,210.2748247443267 286.03081621700284,209.1791538538342 313,208 C 339.96918378299716,206.8208461461658 376.9777786540716,205.55820932898982 407,208 C 437.0222213459284,210.44179067101018 460.0580691667109,216.58800883020658 486,220 C 511.9419308332891,223.41199116979342 540.7899446790848,224.08975535018394 567,222 C 593.2100553209152,219.91024464981606 616.7821521169502,215.05296976905765 639,213 C 661.2178478830498,210.94703023094235 682.0814468531145,211.6983655735854 711,210 C 739.9185531468855,208.3016344264146 776.8920604705917,204.1535679366009 804,207 C 831.1079395294083,209.8464320633991 848.3503112645192,219.68736268001118 870,219 C 891.6496887354808,218.31263731998882 917.7066944713317,207.09698134335443 952,207 C 986.2933055286683,206.90301865664557 1028.8229108501537,217.9247119465712 1053,220 C 1077.1770891498463,222.0752880534288 1083.0016621280533,215.20417087036074 1106,213 C 1128.9983378719467,210.79582912963926 1169.170440637633,213.2586045719858 1197,213 C 1224.829559362367,212.7413954280142 1240.3165753214143,209.76141084169598 1268,211 C 1295.6834246785857,212.23858915830402 1335.5632580767087,217.69575206123022 1364,221 C 1392.4367419232913,224.30424793876978 1409.4303923717507,225.4555809133832 1431,223 C 1452.5696076282493,220.5444190866168 1478.7151724362889,214.48192428523708 1509,213 C 1539.2848275637111,211.51807571476292 1573.7089178830936,214.6167219456685 1606,218 C 1638.2910821169064,221.3832780543315 1668.449156031336,225.05118793208888 1694,222 C 1719.550843968664,218.94881206791112 1740.494457991563,209.17852632597604 1762,209 C 1783.505542008437,208.82147367402396 1805.5730120024105,218.23470676400683 1832,221 C 1858.4269879975895,223.76529323599317 1889.2134939987948,219.88264661799658 1920,216 C 1920,216 1920,240 1920,240 Z" fill="#6c9474" opacity="0.54"/></svg>